<svg xmlns="http://www.w3.org/2000/svg" xmlns:xlink="http://www.w3.org/1999/xlink" version="1.1" width="256" height="256" viewBox="0 0 256 256" xml:space="preserve">

<defs>
</defs>
<g style="stroke: none; stroke-width: 0; stroke-dasharray: none; stroke-linecap: butt; stroke-linejoin: miter; stroke-miterlimit: 10; fill: none; fill-rule: nonzero; opacity: 1;" transform="translate(1.4065934065934016 1.4065934065934016) scale(2.81 2.81)" >
	<path d="M 49.522 88 h -9.349 H 10.65 V 65.563 H 46.5 c 0.553 0 1 -0.447 1 -1 s -0.447 -1 -1 -1 H 10.65 V 26.438 h 59.048 v 4.298 c 0 0.552 0.447 1 1 1 s 1 -0.448 1 -1 v -4.298 h 5.757 c 0.553 0 1 -0.448 1 -1 s -0.447 -1 -1 -1 h -5.757 V 2 h 5.757 c 0.553 0 1 -0.448 1 -1 s -0.447 -1 -1 -1 h -6.757 H 9.65 H 2.893 c -0.552 0 -1 0.448 -1 1 s 0.448 1 1 1 H 8.65 v 22.438 H 2.893 c -0.552 0 -1 0.448 -1 1 s 0.448 1 1 1 H 8.65 v 37.125 H 2.893 c -0.552 0 -1 0.447 -1 1 s 0.448 1 1 1 H 8.65 V 88 H 2.893 c -0.552 0 -1 0.447 -1 1 s 0.448 1 1 1 H 9.65 h 30.524 h 9.349 c 0.553 0 1 -0.447 1 -1 S 50.075 88 49.522 88 z M 10.65 2 h 59.048 v 22.438 H 10.65 V 2 z" style="stroke: none; stroke-width: 1; stroke-dasharray: none; stroke-linecap: butt; stroke-linejoin: miter; stroke-miterlimit: 10; fill: rgb(0,0,0); fill-rule: nonzero; opacity: 1;" transform=" matrix(1 0 0 1 0 0) " stroke-linecap="round" />
	<path d="M 83.647 60.982 c -0.032 -0.052 -0.069 -0.101 -0.111 -0.146 c -5.541 -6.051 -9.429 -12.767 -11.885 -20.531 c -0.131 -0.416 -0.517 -0.698 -0.953 -0.698 s -0.822 0.283 -0.953 0.698 c -2.456 7.764 -6.344 14.479 -11.886 20.531 c -0.016 0.018 -0.031 0.035 -0.045 0.054 l -0.045 0.048 c -0.069 0.074 -0.139 0.148 -0.205 0.225 c -2.757 3.166 -4.275 7.225 -4.275 11.429 c 0 9.6 7.81 17.409 17.409 17.409 s 17.409 -7.81 17.409 -17.409 C 88.107 68.305 86.525 64.19 83.647 60.982 z M 70.698 88 c -8.497 0 -15.409 -6.912 -15.409 -15.409 c 0 -3.721 1.344 -7.313 3.783 -10.115 l 0.267 -0.289 c 0.017 -0.019 0.033 -0.038 0.049 -0.058 c 5.045 -5.523 8.763 -11.581 11.311 -18.444 c 2.535 6.829 6.228 12.859 11.232 18.359 c 0.032 0.051 0.068 0.099 0.109 0.144 c 2.623 2.859 4.067 6.554 4.067 10.403 C 86.107 81.088 79.195 88 70.698 88 z" style="stroke: none; stroke-width: 1; stroke-dasharray: none; stroke-linecap: butt; stroke-linejoin: miter; stroke-miterlimit: 10; fill: rgb(0,0,0); fill-rule: nonzero; opacity: 1;" transform=" matrix(1 0 0 1 0 0) " stroke-linecap="round" />
</g>
</svg>