<svg xmlns="http://www.w3.org/2000/svg" xmlns:xlink="http://www.w3.org/1999/xlink" version="1.1" width="256" height="256" viewBox="0 0 256 256" xml:space="preserve">

<defs>
</defs>
<g style="stroke: none; stroke-width: 0; stroke-dasharray: none; stroke-linecap: butt; stroke-linejoin: miter; stroke-miterlimit: 10; fill: none; fill-rule: nonzero; opacity: 1;" transform="translate(1.4065934065934016 1.4065934065934016) scale(2.81 2.81)" >
	<path d="M 77 34.412 l -6.757 -7.192 l 1.98 -12.211 c 0.187 -1.15 -0.086 -2.304 -0.768 -3.248 c -0.682 -0.945 -1.69 -1.568 -2.84 -1.754 l -5.061 -0.821 c -2.372 -0.384 -4.618 1.233 -5.004 3.606 l -0.274 1.69 L 47.739 3.267 c -2.156 -2.296 -5.598 -2.853 -8.369 -1.356 L 1.767 22.212 c -1.287 0.695 -1.962 2.076 -1.718 3.518 c 0.243 1.442 1.333 2.525 2.776 2.759 l 6.979 1.132 v 57.303 c 0 1.104 0.895 2 2 2 H 31.9 h 16.381 h 20.096 c 1.104 0 2 -0.895 2 -2 V 64.011 c 0 -0.015 -0.004 -0.029 -0.004 -0.043 c -0.002 -0.074 -0.012 -0.147 -0.022 -0.22 c -0.008 -0.059 -0.012 -0.118 -0.025 -0.175 c -0.014 -0.064 -0.037 -0.125 -0.058 -0.187 c -0.02 -0.061 -0.037 -0.123 -0.063 -0.181 c -0.026 -0.06 -0.062 -0.116 -0.094 -0.173 c -0.031 -0.054 -0.058 -0.109 -0.093 -0.16 c -0.038 -0.055 -0.084 -0.104 -0.128 -0.155 c -0.041 -0.047 -0.079 -0.097 -0.123 -0.14 c -0.044 -0.042 -0.094 -0.079 -0.142 -0.117 c -0.056 -0.045 -0.11 -0.09 -0.17 -0.129 c -0.013 -0.008 -0.023 -0.019 -0.036 -0.027 l -12.21 -7.439 c -0.548 -0.333 -1.222 -0.384 -1.814 -0.137 L 44.775 59.18 l -4.661 -3.039 h 3.97 c 0.471 0 0.927 -0.166 1.287 -0.47 l 9.915 -8.339 l 12.605 3.156 c 0.013 0.003 0.026 0.003 0.039 0.006 c 0.07 0.016 0.142 0.022 0.214 0.031 c 0.062 0.007 0.125 0.017 0.186 0.019 c 0.016 0 0.03 0.005 0.046 0.005 c 0.057 0 0.11 -0.012 0.165 -0.017 c 0.061 -0.005 0.122 -0.008 0.182 -0.018 c 0.076 -0.013 0.148 -0.035 0.221 -0.057 c 0.051 -0.015 0.102 -0.028 0.151 -0.047 c 0.072 -0.028 0.139 -0.063 0.206 -0.098 c 0.047 -0.025 0.095 -0.048 0.14 -0.076 c 0.06 -0.038 0.115 -0.081 0.17 -0.125 c 0.047 -0.037 0.094 -0.073 0.138 -0.114 c 0.047 -0.044 0.088 -0.093 0.131 -0.142 c 0.043 -0.049 0.086 -0.097 0.124 -0.15 c 0.038 -0.053 0.069 -0.11 0.101 -0.166 c 0.032 -0.055 0.065 -0.109 0.091 -0.168 c 0.03 -0.066 0.051 -0.135 0.074 -0.204 c 0.015 -0.045 0.036 -0.086 0.048 -0.133 c 0.003 -0.013 0.003 -0.027 0.006 -0.04 c 0.015 -0.064 0.021 -0.132 0.029 -0.198 c 0.009 -0.07 0.02 -0.139 0.021 -0.209 c 0 -0.013 0.004 -0.025 0.004 -0.038 v -9.105 l 3.635 0.589 c 0.188 0.031 0.376 0.045 0.561 0.045 c 1.23 0 2.35 -0.663 2.946 -1.786 C 78.204 37.001 78.001 35.478 77 34.412 z M 62.499 13.433 c 0.031 -0.196 0.212 -0.329 0.414 -0.299 l 5.062 0.821 c 0.122 0.02 0.195 0.09 0.235 0.146 c 0.039 0.055 0.083 0.146 0.063 0.269 l -1.487 9.172 l -5.054 -5.38 L 62.499 13.433 z M 33.9 84.924 V 72.542 h 12.381 v 12.382 H 33.9 z M 66.377 45.986 l -11.11 -2.781 c -0.62 -0.157 -1.281 -0.003 -1.772 0.409 l -10.139 8.527 h -9.969 c -0.885 0 -1.665 0.582 -1.917 1.43 c -0.252 0.849 0.083 1.762 0.824 2.245 l 11.184 7.294 c 0.556 0.363 1.254 0.424 1.866 0.17 L 56 58.811 l 10.378 6.324 v 19.789 H 50.281 V 70.542 c 0 -1.104 -0.895 -2 -2 -2 H 31.9 c -1.104 0 -2 0.895 -2 2 v 14.382 H 13.804 V 30.269 l 52.573 8.525 V 45.986 z M 5.318 24.841 L 41.271 5.43 c 1.174 -0.636 2.637 -0.399 3.553 0.576 L 72.8 35.784 L 5.318 24.841 z" style="stroke: none; stroke-width: 1; stroke-dasharray: none; stroke-linecap: butt; stroke-linejoin: miter; stroke-miterlimit: 10; fill: rgb(0,0,0); fill-rule: nonzero; opacity: 1;" transform=" matrix(1 0 0 1 0 0) " stroke-linecap="round" />
	<path d="M 88 60.135 h -9.937 c -1.104 0 -2 -0.895 -2 -2 c 0 -1.104 0.895 -2 2 -2 H 88 c 1.104 0 2 0.895 2 2 C 90 59.24 89.105 60.135 88 60.135 z" style="stroke: none; stroke-width: 1; stroke-dasharray: none; stroke-linecap: butt; stroke-linejoin: miter; stroke-miterlimit: 10; fill: rgb(0,0,0); fill-rule: nonzero; opacity: 1;" transform=" matrix(1 0 0 1 0 0) " stroke-linecap="round" />
	<path d="M 85.646 75.335 c -0.512 0 -1.023 -0.195 -1.414 -0.586 l -7.026 -7.027 c -0.781 -0.781 -0.781 -2.048 0 -2.828 c 0.781 -0.781 2.047 -0.781 2.828 0 l 7.026 7.027 c 0.781 0.781 0.781 2.048 0 2.828 C 86.669 75.14 86.157 75.335 85.646 75.335 z" style="stroke: none; stroke-width: 1; stroke-dasharray: none; stroke-linecap: butt; stroke-linejoin: miter; stroke-miterlimit: 10; fill: rgb(0,0,0); fill-rule: nonzero; opacity: 1;" transform=" matrix(1 0 0 1 0 0) " stroke-linecap="round" />
	<path d="M 78.619 51.962 c -0.512 0 -1.023 -0.195 -1.414 -0.586 c -0.781 -0.78 -0.781 -2.047 0 -2.828 l 7.026 -7.027 c 0.781 -0.781 2.047 -0.781 2.828 0 c 0.781 0.781 0.781 2.047 0 2.829 l -7.026 7.027 C 79.643 51.767 79.131 51.962 78.619 51.962 z" style="stroke: none; stroke-width: 1; stroke-dasharray: none; stroke-linecap: butt; stroke-linejoin: miter; stroke-miterlimit: 10; fill: rgb(0,0,0); fill-rule: nonzero; opacity: 1;" transform=" matrix(1 0 0 1 0 0) " stroke-linecap="round" />
</g>
</svg>