<svg xmlns="http://www.w3.org/2000/svg" xmlns:xlink="http://www.w3.org/1999/xlink" version="1.1" width="256" height="256" viewBox="0 0 256 256" xml:space="preserve">

<defs>
</defs>
<g style="stroke: none; stroke-width: 0; stroke-dasharray: none; stroke-linecap: butt; stroke-linejoin: miter; stroke-miterlimit: 10; fill: none; fill-rule: nonzero; opacity: 1;" transform="translate(1.4065934065934016 1.4065934065934016) scale(2.81 2.81)" >
	<path d="M 89 67.951 h -4.807 v -7.12 c 0 -19.137 -13.501 -35.215 -32.221 -38.565 v -1.454 c 0 -2.057 -1.674 -3.731 -3.731 -3.731 h -6.483 c -2.057 0 -3.731 1.674 -3.731 3.731 v 1.454 c -18.72 3.35 -32.221 19.427 -32.221 38.565 v 7.12 H 1 c -0.552 0 -1 0.447 -1 1 c 0 4.366 3.124 8.041 7.429 8.738 C 19.894 79.708 32.447 80.718 45 80.718 c 12.554 0 25.106 -1.01 37.572 -3.028 C 86.876 76.992 90 73.317 90 68.951 C 90 68.398 89.553 67.951 89 67.951 z M 40.027 20.812 c 0 -0.955 0.776 -1.731 1.731 -1.731 h 6.483 c 0.955 0 1.731 0.776 1.731 1.731 v 31.312 c 0 0.955 -0.776 1.731 -1.731 1.731 h -6.483 c -0.955 0 -1.731 -0.776 -1.731 -1.731 V 20.812 z M 7.807 60.831 c 0 -12.061 5.65 -22.844 14.648 -29.659 l 4.781 23.88 c 0.095 0.476 0.513 0.804 0.979 0.804 c 0.065 0 0.131 -0.006 0.197 -0.02 c 0.542 -0.108 0.893 -0.636 0.784 -1.177 l -4.956 -24.752 c 4.062 -2.713 8.718 -4.653 13.786 -5.609 v 27.826 c 0 2.058 1.674 3.731 3.731 3.731 h 6.483 c 2.058 0 3.731 -1.674 3.731 -3.731 V 24.298 c 5.068 0.956 9.724 2.897 13.787 5.61 l -4.956 24.752 c -0.108 0.542 0.242 1.068 0.784 1.177 c 0.066 0.014 0.132 0.02 0.197 0.02 c 0.467 0 0.885 -0.328 0.979 -0.804 l 4.781 -23.879 c 8.998 6.815 14.648 17.598 14.648 29.659 v 7.12 H 7.807 V 60.831 z M 82.252 75.715 c -24.719 4.004 -49.786 4.004 -74.503 0 c -2.997 -0.485 -5.254 -2.836 -5.677 -5.764 h 85.857 C 87.506 72.879 85.248 75.229 82.252 75.715 z" style="stroke: none; stroke-width: 1; stroke-dasharray: none; stroke-linecap: butt; stroke-linejoin: miter; stroke-miterlimit: 10; fill: rgb(0,0,0); fill-rule: nonzero; opacity: 1;" transform=" matrix(1 0 0 1 0 0) " stroke-linecap="round" />
</g>
</svg>