<svg xmlns="http://www.w3.org/2000/svg" xmlns:xlink="http://www.w3.org/1999/xlink" version="1.1" width="256" height="256" viewBox="0 0 256 256" xml:space="preserve">

<defs>
</defs>
<g style="stroke: none; stroke-width: 0; stroke-dasharray: none; stroke-linecap: butt; stroke-linejoin: miter; stroke-miterlimit: 10; fill: none; fill-rule: nonzero; opacity: 1;" transform="translate(1.4065934065934016 1.4065934065934016) scale(2.81 2.81)" >
	<path d="M 83.271 7.566 C 83.271 3.394 79.878 0 75.706 0 h -6.875 c -0.002 0 -0.003 0 -0.005 0 H 14.294 c -4.172 0 -7.566 3.394 -7.566 7.566 v 74.867 c 0 4.172 3.394 7.566 7.566 7.566 h 61.412 c 3.825 0 6.988 -2.857 7.488 -6.547 c 0.063 -0.175 0.088 -0.356 0.052 -0.533 c 0.01 -0.162 0.025 -0.322 0.025 -0.487 V 7.566 z M 81.271 67.768 c -10.496 -19.609 -10.5 -40.748 0 -55.491 V 67.768 z M 81.271 7.566 V 8.97 c -13.166 16.182 -13.172 40.782 0 62.87 v 9.277 C 55.586 61.474 61.592 22.675 69.543 2 h 6.163 C 78.774 2 81.271 4.497 81.271 7.566 z M 55.945 88 c -3.853 -1.545 -13.199 -17.398 -15.291 -32.846 c -0.074 -0.548 -0.583 -0.926 -1.125 -0.857 c -0.547 0.074 -0.931 0.578 -0.856 1.125 C 40.386 68.084 47.353 82.666 52.67 88 H 35.839 c 1.935 -4.678 3.587 -9.835 4.797 -15.021 c 0.126 -0.538 -0.208 -1.076 -0.746 -1.201 c -0.542 -0.125 -1.076 0.209 -1.201 0.746 c -1.253 5.366 -2.987 10.698 -5.02 15.476 H 20.48 c 5.988 -11.667 10.15 -27.99 10.93 -43.11 C 32.077 31.978 30.656 14.329 20.494 2 h 11.292 c 1.061 1.994 2.046 4.167 2.925 6.485 c 0.151 0.4 0.532 0.646 0.935 0.646 c 0.118 0 0.238 -0.021 0.354 -0.065 c 0.517 -0.196 0.776 -0.773 0.581 -1.29 C 35.809 5.739 34.956 3.806 34.042 2 h 6.753 c -2.54 5.829 -3.034 17.601 -2.128 27.096 c 0.049 0.517 0.485 0.905 0.995 0.905 c 0.032 0 0.064 -0.001 0.096 -0.004 c 0.55 -0.053 0.953 -0.541 0.9 -1.091 C 39.736 19.25 40.387 6.804 43.017 2 h 8.084 c -4.636 30.309 -6.45 59.683 17.931 86 H 55.945 z M 8.728 19.76 c 11.502 15.751 11.501 34.001 0 53.115 V 19.76 z M 8.728 82.434 v -5.792 c 14.017 -21.407 14.014 -42.749 0 -60.171 V 7.566 C 8.728 4.497 11.225 2 14.294 2 h 3.548 c 18.168 20.044 12.538 63.23 0.384 86 h -3.932 C 11.225 88 8.728 85.503 8.728 82.434 z M 75.706 88 h -3.932 C 46.566 61.897 48.451 32.433 53.124 2 h 14.28 c -8.126 21.679 -13.836 61.673 13.757 81.535 C 80.649 86.078 78.398 88 75.706 88 z" style="stroke: none; stroke-width: 1; stroke-dasharray: none; stroke-linecap: butt; stroke-linejoin: miter; stroke-miterlimit: 10; fill: rgb(0,0,0); fill-rule: nonzero; opacity: 1;" transform=" matrix(1 0 0 1 0 0) " stroke-linecap="round" />
</g>
</svg>