<svg xmlns="http://www.w3.org/2000/svg" xmlns:xlink="http://www.w3.org/1999/xlink" version="1.1" width="256" height="256" viewBox="0 0 256 256" xml:space="preserve">

<defs>
</defs>
<g style="stroke: none; stroke-width: 0; stroke-dasharray: none; stroke-linecap: butt; stroke-linejoin: miter; stroke-miterlimit: 10; fill: none; fill-rule: nonzero; opacity: 1;" transform="translate(1.4065934065934016 1.4065934065934016) scale(2.81 2.81)" >
	<path d="M 85.164 29.251 l -8.833 -6.797 V 8.626 c 0 -1.947 -1.584 -3.532 -3.531 -3.532 H 67.3 c -1.947 0 -3.532 1.585 -3.532 3.532 v 4.161 l -14.92 -11.48 c -2.266 -1.743 -5.43 -1.743 -7.695 0 L 4.835 29.251 c -0.848 0.653 -1.173 1.73 -0.829 2.743 c 0.345 1.013 1.259 1.668 2.329 1.668 h 7.333 v 50.136 c 0 3.421 2.783 6.203 6.203 6.203 h 50.256 c 3.42 0 6.202 -2.782 6.202 -6.203 V 33.661 h 7.334 c 1.07 0 1.984 -0.655 2.329 -1.668 C 86.338 30.98 86.013 29.904 85.164 29.251 z M 65.768 8.626 c 0 -0.845 0.688 -1.532 1.532 -1.532 h 5.499 c 0.845 0 1.531 0.687 1.531 1.532 v 12.289 l -8.563 -6.589 V 8.626 z M 74.331 83.797 c 0 2.317 -1.885 4.203 -4.202 4.203 H 19.872 c -2.317 0 -4.203 -1.886 -4.203 -4.203 V 33.661 h 58.662 V 83.797 z M 84.1 31.349 c -0.04 0.117 -0.149 0.312 -0.436 0.312 H 6.336 c -0.287 0 -0.396 -0.195 -0.436 -0.312 c -0.04 -0.116 -0.072 -0.338 0.155 -0.513 L 42.372 2.892 C 43.146 2.297 44.073 1.999 45 1.999 c 0.927 0 1.855 0.298 2.629 0.893 l 36.316 27.943 C 84.173 31.011 84.139 31.233 84.1 31.349 z" style="stroke: none; stroke-width: 1; stroke-dasharray: none; stroke-linecap: butt; stroke-linejoin: miter; stroke-miterlimit: 10; fill: rgb(0,0,0); fill-rule: nonzero; opacity: 1;" transform=" matrix(1 0 0 1 0 0) " stroke-linecap="round" />
	<path d="M 42.382 75.313 c -0.261 0 -0.512 -0.102 -0.699 -0.285 L 26.151 59.841 c -0.395 -0.386 -0.402 -1.02 -0.016 -1.414 s 1.02 -0.401 1.414 -0.016 l 14.743 14.416 L 62.37 47.788 c 0.345 -0.43 0.976 -0.499 1.406 -0.154 c 0.431 0.346 0.5 0.975 0.154 1.406 L 43.162 74.939 c -0.177 0.22 -0.438 0.355 -0.72 0.372 C 42.422 75.313 42.402 75.313 42.382 75.313 z" style="stroke: none; stroke-width: 1; stroke-dasharray: none; stroke-linecap: butt; stroke-linejoin: miter; stroke-miterlimit: 10; fill: rgb(0,0,0); fill-rule: nonzero; opacity: 1;" transform=" matrix(1 0 0 1 0 0) " stroke-linecap="round" />
</g>
</svg>