<svg xmlns="http://www.w3.org/2000/svg" xmlns:xlink="http://www.w3.org/1999/xlink" version="1.1" width="256" height="256" viewBox="0 0 256 256" xml:space="preserve">

<defs>
</defs>
<g style="stroke: none; stroke-width: 0; stroke-dasharray: none; stroke-linecap: butt; stroke-linejoin: miter; stroke-miterlimit: 10; fill: none; fill-rule: nonzero; opacity: 1;" transform="translate(1.4065934065934016 1.4065934065934016) scale(2.81 2.81)" >
	<path d="M 58.116 28.259 c -9.523 0 -17.271 7.748 -17.271 17.272 c 0 9.523 7.748 17.271 17.271 17.271 c 9.524 0 17.272 -7.748 17.272 -17.271 C 75.389 36.007 67.641 28.259 58.116 28.259 z M 58.116 60.803 c -8.421 0 -15.271 -6.851 -15.271 -15.271 s 6.851 -15.272 15.271 -15.272 s 15.272 6.851 15.272 15.272 S 66.537 60.803 58.116 60.803 z" style="stroke: none; stroke-width: 1; stroke-dasharray: none; stroke-linecap: butt; stroke-linejoin: miter; stroke-miterlimit: 10; fill: rgb(0,0,0); fill-rule: nonzero; opacity: 1;" transform=" matrix(1 0 0 1 0 0) " stroke-linecap="round" />
	<path d="M 64.357 41.747 l -3.335 0.643 l 0.808 -7.789 c 0.063 -0.633 -0.31 -1.224 -0.912 -1.439 c -0.598 -0.21 -1.262 0.012 -1.611 0.544 L 50.46 47.212 c -0.302 0.465 -0.297 1.062 0.01 1.516 c 0.308 0.461 0.859 0.688 1.406 0.589 l 3.335 -0.644 l -0.808 7.79 c -0.063 0.635 0.312 1.227 0.908 1.436 c 0.149 0.054 0.306 0.081 0.463 0.081 c 0.464 0 0.894 -0.231 1.152 -0.623 l 8.841 -13.499 c 0.308 -0.465 0.306 -1.065 -0.007 -1.528 C 65.451 41.87 64.903 41.644 64.357 41.747 z M 56.657 54.117 l 0.683 -6.577 c 0.032 -0.315 -0.086 -0.627 -0.319 -0.841 c -0.187 -0.171 -0.428 -0.263 -0.676 -0.263 c -0.063 0 -0.126 0.006 -0.189 0.018 l -3.214 0.62 l 6.635 -10.129 l -0.683 6.578 c -0.032 0.315 0.086 0.626 0.319 0.84 s 0.551 0.305 0.865 0.245 l 3.213 -0.619 L 56.657 54.117 z" style="stroke: none; stroke-width: 1; stroke-dasharray: none; stroke-linecap: butt; stroke-linejoin: miter; stroke-miterlimit: 10; fill: rgb(0,0,0); fill-rule: nonzero; opacity: 1;" transform=" matrix(1 0 0 1 0 0) " stroke-linecap="round" />
	<path d="M 89.666 40.348 c -0.061 -1.402 -1.227 -2.483 -2.654 -2.432 c -2.813 0.115 -4.675 -1.63 -5.459 -3.313 c -0.785 -1.682 -0.941 -4.224 0.972 -6.312 c 0.459 -0.501 0.695 -1.151 0.666 -1.83 s -0.322 -1.307 -0.823 -1.766 l -5.606 -5.138 c -0.501 -0.459 -1.172 -0.699 -1.83 -0.666 c -0.68 0.029 -1.307 0.322 -1.766 0.823 c -1.912 2.088 -4.458 2.155 -6.204 1.518 c -1.744 -0.635 -3.652 -2.321 -3.775 -5.15 c -0.062 -1.402 -1.223 -2.48 -2.654 -2.432 l -7.598 0.332 c -0.68 0.03 -1.307 0.322 -1.766 0.824 s -0.695 1.152 -0.665 1.83 c 0.123 2.829 -1.631 4.675 -3.313 5.46 c -1.684 0.784 -4.224 0.941 -6.312 -0.972 c -0.568 -0.521 -1.323 -0.738 -2.049 -0.644 c -1.307 -3.273 -3.723 -6.064 -6.887 -7.792 l 0.016 -0.102 c 0.135 -0.839 -0.103 -1.691 -0.654 -2.338 S 29.951 9.23 29.101 9.23 h -8.923 c -0.85 0 -1.653 0.371 -2.204 1.018 s -0.789 1.499 -0.654 2.338 l 0.016 0.102 c -4.869 2.66 -7.98 7.839 -7.98 13.409 v 0.213 c -1.231 0.213 -2.171 1.281 -2.171 2.572 v 3.793 c 0 1.443 1.174 2.617 2.617 2.617 h 0.886 v 2.146 c 0 5.608 3.333 10.44 8.116 12.655 c -0.328 0.08 -0.653 0.168 -0.976 0.261 c -0.115 0.033 -0.231 0.064 -0.346 0.098 c -0.256 0.078 -0.508 0.163 -0.761 0.249 c -0.04 0.013 -0.081 0.022 -0.12 0.036 c -0.006 0.002 -0.011 0.008 -0.017 0.011 c -0.185 0.064 -0.37 0.127 -0.553 0.195 c -0.129 0.048 -0.255 0.101 -0.383 0.151 c -0.371 0.146 -0.737 0.3 -1.099 0.463 c -0.145 0.065 -0.291 0.129 -0.435 0.197 c -0.44 0.209 -0.873 0.429 -1.298 0.662 c -0.151 0.083 -0.299 0.172 -0.449 0.259 c -0.305 0.176 -0.607 0.359 -0.904 0.547 c -0.107 0.068 -0.218 0.127 -0.325 0.197 c -0.021 0.014 -0.036 0.033 -0.056 0.048 C 4.412 57.881 0 65.448 0 74.028 v 5.741 c 0 0.553 0.448 1 1 1 h 10.688 h 25.903 h 10.688 c 0.553 0 1 -0.447 1 -1 v -5.741 c 0 -1.471 -0.137 -2.909 -0.385 -4.31 c 2.134 0.614 4.031 2.424 4.155 5.263 c 0.061 1.363 1.19 2.434 2.542 2.434 c 0.037 0 0.074 -0.001 0.112 -0.003 l 7.599 -0.332 c 1.401 -0.061 2.492 -1.252 2.431 -2.654 c -0.123 -2.828 1.631 -4.675 3.313 -5.459 c 1.685 -0.783 4.225 -0.941 6.313 0.973 c 1.034 0.945 2.647 0.876 3.596 -0.158 l 5.138 -5.606 c 0.947 -1.034 0.878 -2.647 -0.156 -3.597 c -2.088 -1.913 -2.153 -4.458 -1.519 -6.202 c 0.635 -1.745 2.321 -3.653 5.151 -3.776 c 1.402 -0.063 2.492 -1.254 2.43 -2.654 L 89.666 40.348 z M 19.497 11.545 c 0.1 -0.117 0.321 -0.314 0.681 -0.314 h 8.923 c 0.359 0 0.581 0.197 0.681 0.314 c 0.1 0.118 0.26 0.368 0.202 0.723 l -0.131 0.809 c 0 0 0 0 0 0 l -0.964 5.967 c -0.098 0.607 -0.616 1.048 -1.231 1.048 h -6.037 c -0.615 0 -1.133 -0.441 -1.231 -1.048 l -0.964 -5.967 c 0 0 0 0 0 0 l -0.131 -0.809 C 19.237 11.913 19.397 11.663 19.497 11.545 z M 11.356 26.097 c 0 -4.68 2.39 -8.899 6.32 -11.307 l 0.739 4.573 c 0.256 1.582 1.604 2.729 3.206 2.729 h 6.037 c 1.602 0 2.95 -1.148 3.206 -2.729 l 0.739 -4.573 c 2.82 1.728 4.829 4.397 5.749 7.492 c 0.067 0.224 0.132 0.448 0.187 0.674 c 0.098 0.409 0.182 0.824 0.242 1.245 c 0.019 0.134 0.032 0.268 0.047 0.402 c 0.055 0.492 0.095 0.989 0.095 1.494 v 0.168 H 11.356 V 26.097 z M 9.185 32.675 v -3.793 c 0 -0.34 0.277 -0.617 0.617 -0.617 h 0.554 h 28.566 h 0.554 c 0.34 0 0.617 0.277 0.617 0.617 v 3.793 c 0 0.34 -0.277 0.617 -0.617 0.617 h -1.886 H 11.688 H 9.802 C 9.462 33.292 9.185 33.016 9.185 32.675 z M 12.688 37.438 v -2.146 h 23.903 v 2.145 c 0 5.766 -4.105 10.592 -9.546 11.708 c -0.777 0.159 -1.582 0.243 -2.406 0.243 C 18.049 49.389 12.688 44.028 12.688 37.438 z M 18.603 52.212 c 0.949 -0.263 1.914 -0.464 2.887 -0.6 c 0.05 -0.007 0.1 -0.013 0.151 -0.019 c 0.444 -0.059 0.89 -0.104 1.336 -0.137 c 0.06 -0.004 0.121 -0.01 0.181 -0.014 c 0.631 -0.041 1.263 -0.048 1.894 -0.036 c 0.434 0.008 0.867 0.023 1.295 0.055 c 0.278 0.021 0.555 0.054 0.832 0.085 c 0.29 0.032 0.578 0.067 0.865 0.11 c 0.316 0.048 0.631 0.102 0.945 0.163 c 0.221 0.043 0.441 0.092 0.66 0.142 c 0.343 0.078 0.686 0.157 1.026 0.251 c 0.033 0.009 0.067 0.019 0.1 0.028 l -6.136 9.181 l -6.136 -9.181 C 18.536 52.231 18.569 52.222 18.603 52.212 z M 2 74.028 c 0 -7.223 3.404 -13.662 8.688 -17.81 V 78.77 H 2 V 74.028 z M 12.688 78.77 V 54.813 c 0.046 -0.028 0.09 -0.059 0.135 -0.087 c 0.368 -0.226 0.741 -0.441 1.119 -0.645 c 0.128 -0.069 0.259 -0.133 0.389 -0.2 c 0.295 -0.152 0.593 -0.297 0.894 -0.435 c 0.137 -0.063 0.273 -0.126 0.412 -0.187 c 0.296 -0.129 0.597 -0.246 0.898 -0.362 l 7.271 10.879 c 0.186 0.277 0.498 0.444 0.832 0.444 s 0.646 -0.167 0.832 -0.444 l 7.271 -10.879 c 0.3 0.115 0.599 0.232 0.894 0.36 c 0.142 0.062 0.282 0.127 0.422 0.191 c 0.296 0.136 0.589 0.279 0.879 0.427 c 0.134 0.069 0.27 0.135 0.403 0.206 c 0.375 0.202 0.746 0.416 1.111 0.64 c 0.047 0.029 0.093 0.06 0.14 0.09 V 78.77 H 12.688 z M 47.278 78.77 h -8.688 V 56.218 c 2.625 2.061 4.785 4.687 6.294 7.695 c 0.113 0.227 0.224 0.456 0.33 0.688 c 0.093 0.203 0.189 0.405 0.277 0.611 c 0.199 0.473 0.381 0.955 0.549 1.446 c 0.038 0.11 0.076 0.22 0.112 0.331 c 0.179 0.55 0.341 1.109 0.48 1.68 c 0.419 1.719 0.646 3.513 0.646 5.359 V 78.77 z M 87.857 48.425 c -0.099 0.107 -0.233 0.17 -0.379 0.177 c -3.189 0.139 -5.85 2.09 -6.942 5.09 c -1.092 3.001 -0.308 6.204 2.047 8.36 c 0.222 0.204 0.236 0.55 0.033 0.771 l -5.137 5.606 c -0.204 0.221 -0.548 0.238 -0.771 0.034 c -2.353 -2.156 -5.611 -2.66 -8.508 -1.31 c -2.895 1.349 -4.605 4.169 -4.467 7.359 c 0.013 0.3 -0.221 0.556 -0.521 0.568 l -7.599 0.332 c -0.312 -0.006 -0.556 -0.222 -0.568 -0.521 c -0.164 -3.753 -2.961 -6.784 -6.63 -7.326 c -0.014 -0.051 -0.032 -0.1 -0.046 -0.151 c -0.113 -0.406 -0.237 -0.808 -0.37 -1.206 c -0.051 -0.154 -0.102 -0.308 -0.156 -0.46 c -0.107 -0.298 -0.221 -0.592 -0.339 -0.885 c -0.195 -0.49 -0.406 -0.971 -0.63 -1.444 c -0.013 -0.026 -0.024 -0.053 -0.036 -0.079 c -3.004 -6.279 -8.51 -10.952 -15.128 -12.919 c -0.03 -0.009 -0.061 -0.017 -0.092 -0.026 c -0.254 -0.075 -0.509 -0.147 -0.766 -0.214 c -0.023 -0.006 -0.046 -0.013 -0.07 -0.019 c -0.089 -0.023 -0.176 -0.052 -0.266 -0.074 c 0.209 -0.098 0.412 -0.207 0.616 -0.314 c 0.065 -0.034 0.131 -0.064 0.195 -0.099 c 0.351 -0.193 0.692 -0.401 1.024 -0.623 c 0.086 -0.057 0.168 -0.118 0.252 -0.177 c 0.254 -0.177 0.501 -0.362 0.742 -0.555 c 0.09 -0.072 0.18 -0.143 0.269 -0.218 c 0.304 -0.256 0.6 -0.52 0.881 -0.8 c 0.003 -0.003 0.006 -0.006 0.009 -0.009 c 0.28 -0.281 0.545 -0.577 0.8 -0.88 c 0.076 -0.09 0.148 -0.181 0.221 -0.273 c 0.191 -0.239 0.374 -0.484 0.55 -0.735 c 0.061 -0.087 0.123 -0.171 0.182 -0.259 c 0.22 -0.33 0.428 -0.669 0.62 -1.019 c 0.037 -0.068 0.07 -0.139 0.106 -0.207 c 0.154 -0.291 0.297 -0.589 0.43 -0.892 c 0.049 -0.112 0.096 -0.224 0.143 -0.337 c 0.125 -0.307 0.24 -0.62 0.344 -0.937 c 0.025 -0.075 0.053 -0.149 0.077 -0.224 c 0.119 -0.388 0.22 -0.783 0.305 -1.184 c 0.022 -0.105 0.039 -0.211 0.059 -0.317 c 0.059 -0.314 0.108 -0.632 0.146 -0.953 c 0.014 -0.121 0.029 -0.241 0.04 -0.363 c 0.038 -0.42 0.065 -0.844 0.065 -1.274 c 0 0 0 -0.001 0 -0.001 v 0 v -2.145 h 0.886 c 1.443 0 2.617 -1.174 2.617 -2.617 v -3.793 c 0 -0.172 -0.019 -0.339 -0.051 -0.501 c -0.011 -0.054 -0.03 -0.105 -0.044 -0.158 c -0.028 -0.106 -0.056 -0.211 -0.097 -0.311 c -0.024 -0.06 -0.055 -0.116 -0.083 -0.174 c -0.043 -0.087 -0.086 -0.173 -0.138 -0.254 c -0.036 -0.057 -0.076 -0.11 -0.117 -0.164 c -0.056 -0.074 -0.114 -0.146 -0.177 -0.214 c -0.046 -0.05 -0.094 -0.097 -0.144 -0.143 c -0.068 -0.063 -0.139 -0.121 -0.213 -0.176 c -0.054 -0.04 -0.109 -0.08 -0.166 -0.116 c -0.08 -0.05 -0.164 -0.094 -0.249 -0.135 c -0.06 -0.029 -0.118 -0.059 -0.18 -0.084 c -0.094 -0.037 -0.192 -0.064 -0.291 -0.091 c -0.06 -0.016 -0.117 -0.036 -0.179 -0.047 c -0.015 -0.003 -0.028 -0.009 -0.043 -0.011 v -0.206 c 0 -0.528 -0.037 -1.051 -0.092 -1.571 c -0.012 -0.113 -0.022 -0.226 -0.037 -0.339 c -0.063 -0.493 -0.148 -0.98 -0.259 -1.461 c -0.011 -0.047 -0.014 -0.095 -0.025 -0.142 c 0.006 0.005 0.011 0.01 0.017 0.015 c 2.355 2.157 5.616 2.659 8.508 1.31 c 2.895 -1.349 4.605 -4.169 4.467 -7.36 c -0.007 -0.145 0.044 -0.284 0.142 -0.391 c 0.099 -0.107 0.233 -0.17 0.379 -0.176 l 7.598 -0.332 c 0.287 -0.016 0.556 0.22 0.568 0.521 c 0.139 3.19 2.089 5.85 5.09 6.942 s 6.206 0.308 8.362 -2.046 c 0.099 -0.107 0.232 -0.169 0.378 -0.176 c 0.145 -0.008 0.284 0.044 0.392 0.143 l 5.607 5.138 c 0.106 0.098 0.17 0.232 0.176 0.378 c 0.007 0.145 -0.044 0.285 -0.143 0.392 c -2.157 2.354 -2.659 5.615 -1.31 8.508 c 1.349 2.894 4.148 4.613 7.359 4.466 c 0.148 -0.009 0.284 0.044 0.392 0.143 c 0.107 0.098 0.17 0.232 0.177 0.378 l 0.331 7.599 C 88.006 48.179 87.955 48.317 87.857 48.425 z" style="stroke: none; stroke-width: 1; stroke-dasharray: none; stroke-linecap: butt; stroke-linejoin: miter; stroke-miterlimit: 10; fill: rgb(0,0,0); fill-rule: nonzero; opacity: 1;" transform=" matrix(1 0 0 1 0 0) " stroke-linecap="round" />
</g>
</svg>