<svg xmlns="http://www.w3.org/2000/svg" xmlns:xlink="http://www.w3.org/1999/xlink" version="1.1" width="256" height="256" viewBox="0 0 256 256" xml:space="preserve">

<defs>
</defs>
<g style="stroke: none; stroke-width: 0; stroke-dasharray: none; stroke-linecap: butt; stroke-linejoin: miter; stroke-miterlimit: 10; fill: none; fill-rule: nonzero; opacity: 1;" transform="translate(1.4065934065934016 1.4065934065934016) scale(2.81 2.81)" >
	<path d="M 85.163 29.252 l -8.833 -6.797 V 8.628 c 0 -1.947 -1.584 -3.532 -3.531 -3.532 H 67.3 c -1.947 0 -3.532 1.584 -3.532 3.532 v 4.161 l -14.92 -11.48 c -2.266 -1.743 -5.43 -1.743 -7.695 0 L 4.836 29.252 c -0.848 0.652 -1.173 1.729 -0.829 2.742 c 0.345 1.013 1.259 1.668 2.33 1.668 h 7.333 v 50.135 c 0 3.421 2.783 6.203 6.203 6.203 h 50.255 c 3.42 0 6.202 -2.782 6.202 -6.203 V 33.662 h 7.334 c 1.07 0 1.984 -0.655 2.329 -1.668 C 86.337 30.98 86.012 29.904 85.163 29.252 z M 65.768 8.628 c 0 -0.845 0.688 -1.532 1.532 -1.532 h 5.499 c 0.845 0 1.531 0.687 1.531 1.532 v 12.289 l -8.563 -6.588 V 8.628 z M 74.33 83.797 c 0 2.317 -1.885 4.203 -4.202 4.203 H 19.873 c -2.317 0 -4.203 -1.886 -4.203 -4.203 V 33.662 H 74.33 V 83.797 z M 84.1 31.35 c -0.04 0.117 -0.149 0.312 -0.436 0.312 H 6.336 c -0.287 0 -0.396 -0.195 -0.436 -0.312 s -0.072 -0.338 0.155 -0.513 L 42.372 2.894 C 43.146 2.299 44.073 2.001 45 2.001 s 1.854 0.298 2.629 0.893 l 36.315 27.943 C 84.172 31.012 84.139 31.233 84.1 31.35 z" style="stroke: none; stroke-width: 1; stroke-dasharray: none; stroke-linecap: butt; stroke-linejoin: miter; stroke-miterlimit: 10; fill: rgb(0,0,0); fill-rule: nonzero; opacity: 1;" transform=" matrix(1 0 0 1 0 0) " stroke-linecap="round" />
	<path d="M 45 83.098 c -8.199 0 -14.87 -6.671 -14.87 -14.87 c 0 -3.591 1.297 -7.058 3.653 -9.762 c 0.06 -0.068 0.124 -0.138 0.187 -0.205 l 0.023 -0.024 c 0.013 -0.017 0.027 -0.033 0.042 -0.049 c 4.669 -5.099 7.944 -10.757 10.012 -17.297 c 0.132 -0.416 0.518 -0.698 0.954 -0.698 s 0.822 0.283 0.954 0.698 c 2.068 6.541 5.343 12.198 10.012 17.297 c 0.039 0.043 0.074 0.089 0.104 0.136 c 2.452 2.738 3.8 6.247 3.8 9.904 C 59.87 76.427 53.199 83.098 45 83.098 z M 35.559 59.484 c -0.016 0.019 -0.032 0.038 -0.048 0.056 l -0.219 0.238 c -2.04 2.342 -3.162 5.342 -3.162 8.449 c 0 7.097 5.773 12.87 12.87 12.87 s 12.87 -5.773 12.87 -12.87 c 0 -3.216 -1.206 -6.301 -3.396 -8.688 c -0.039 -0.042 -0.073 -0.086 -0.104 -0.133 c -4.145 -4.558 -7.228 -9.544 -9.37 -15.171 C 42.845 49.894 39.74 54.905 35.559 59.484 z" style="stroke: none; stroke-width: 1; stroke-dasharray: none; stroke-linecap: butt; stroke-linejoin: miter; stroke-miterlimit: 10; fill: rgb(0,0,0); fill-rule: nonzero; opacity: 1;" transform=" matrix(1 0 0 1 0 0) " stroke-linecap="round" />
</g>
</svg>