<?xml version="1.0" standalone="no"?>
<!DOCTYPE svg PUBLIC "-//W3C//DTD SVG 20010904//EN"
 "http://www.w3.org/TR/2001/REC-SVG-20010904/DTD/svg10.dtd">
<svg version="1.0" xmlns="http://www.w3.org/2000/svg"
 width="335.000000pt" height="335.000000pt" viewBox="0 0 335.000000 335.000000"
 preserveAspectRatio="xMidYMid meet">
<metadata>
Created by potrace 1.14, written by Peter Selinger 2001-2017
</metadata>
<g transform="translate(0.000000,335.000000) scale(0.100000,-0.100000)"
fill="#000000" stroke="none">
<path d="M1575 3264 c-33 -17 -80 -54 -69 -54 4 0 -18 -25 -49 -55 -31 -30
-58 -58 -59 -62 -3 -7 -51 -59 -180 -195 -32 -33 -58 -65 -58 -70 0 -5 -4 -6
-10 -3 -5 3 -10 1 -10 -5 0 -6 -25 -35 -55 -65 -30 -30 -52 -55 -48 -55 3 0
-6 -9 -21 -21 -14 -11 -23 -26 -19 -32 3 -7 3 -9 -1 -5 -9 7 -56 -39 -56 -54
0 -5 -4 -6 -10 -3 -5 3 -10 3 -10 -2 0 -4 -38 -48 -85 -97 -47 -49 -85 -94
-85 -98 0 -5 -4 -6 -10 -3 -6 4 -7 -1 -3 -11 4 -11 3 -15 -5 -10 -6 3 -13 -3
-17 -14 -3 -11 -13 -20 -21 -20 -8 0 -13 -4 -10 -9 3 -5 -5 -20 -19 -35 -13
-14 -21 -26 -17 -26 4 0 -2 -7 -12 -15 -11 -8 -16 -15 -10 -15 5 0 4 -4 -2 -8
-14 -9 -75 -122 -66 -122 4 0 2 -4 -3 -8 -13 -9 -39 -69 -65 -152 -48 -155
-65 -425 -34 -544 9 -33 17 -65 19 -71 1 -5 4 -17 7 -25 3 -8 12 -35 19 -60 7
-25 26 -71 41 -103 16 -31 28 -62 28 -67 0 -6 4 -10 8 -10 5 0 19 -20 31 -45
12 -24 26 -47 32 -50 5 -4 7 -11 4 -16 -4 -5 1 -9 10 -9 9 0 13 -4 10 -10 -3
-5 -1 -10 5 -10 6 0 9 -4 6 -8 -3 -5 4 -14 14 -22 10 -8 17 -17 14 -22 -3 -4
3 -8 12 -8 10 0 15 -3 12 -6 -5 -4 106 -119 183 -190 24 -22 70 -13 105 21 28
27 54 65 54 79 0 7 -46 56 -52 56 -3 0 -26 20 -50 45 -25 25 -44 45 -42 45 2
0 -11 15 -29 34 -52 55 -77 86 -77 96 0 6 -9 20 -20 32 -11 12 -20 28 -20 35
0 7 -5 13 -10 13 -6 0 -9 3 -8 8 2 4 -13 41 -32 82 -19 41 -35 77 -35 80 -1 3
-7 25 -14 50 -7 25 -15 53 -17 62 -2 10 -7 28 -10 41 -4 12 -8 81 -10 152 -3
157 3 192 56 335 17 47 32 91 32 98 1 6 4 12 8 12 3 0 16 22 28 48 12 27 36
64 52 82 17 18 30 36 30 40 0 3 9 16 20 28 12 12 19 22 17 22 -2 0 24 29 59
65 35 36 64 70 64 76 0 6 4 7 10 4 5 -3 12 5 16 19 3 14 9 24 13 23 4 -1 24
15 44 36 20 20 34 37 32 37 -3 0 5 10 18 23 12 12 26 21 30 19 5 -1 6 2 2 7
-3 6 4 15 16 21 11 7 19 14 16 16 -2 2 19 28 47 58 135 142 213 226 209 226
-2 0 12 15 31 34 20 18 33 36 29 40 -3 3 0 6 7 6 14 0 50 37 50 52 0 5 5 6 10
3 6 -3 10 -1 10 5 0 6 15 25 33 43 79 80 95 124 60 165 -26 30 -85 43 -118 26z"/>
<path d="M1838 3102 c-16 -2 -28 -8 -28 -13 0 -5 -5 -9 -11 -9 -13 0 -139
-130 -139 -143 0 -4 -4 -5 -10 -2 -5 3 -10 0 -10 -8 0 -8 -11 -23 -25 -33 -14
-10 -25 -24 -25 -31 0 -7 -7 -13 -15 -13 -8 0 -22 -12 -32 -27 -10 -16 -38
-49 -63 -75 -25 -26 -81 -86 -125 -134 -44 -48 -105 -114 -136 -146 -30 -32
-53 -58 -50 -58 3 0 -11 -15 -31 -33 -21 -19 -38 -39 -38 -46 0 -7 -4 -9 -10
-6 -5 3 -10 2 -10 -4 0 -5 -20 -29 -45 -54 -24 -24 -41 -47 -38 -51 4 -3 0 -6
-9 -6 -8 0 -21 -11 -28 -25 -7 -14 -17 -25 -22 -25 -4 0 -8 -7 -8 -15 0 -8 -4
-15 -10 -15 -5 0 -10 -5 -10 -10 0 -6 -9 -20 -20 -32 -10 -12 -17 -25 -14 -30
3 -4 0 -8 -6 -8 -6 0 -9 -4 -6 -9 4 -5 3 -11 -1 -13 -14 -6 -74 -139 -68 -148
4 -6 1 -10 -6 -10 -7 0 -10 -3 -7 -6 3 -3 -2 -31 -12 -63 -13 -45 -17 -89 -15
-192 1 -74 5 -145 9 -159 4 -14 10 -41 13 -60 5 -31 30 -102 66 -183 6 -15 16
-27 20 -27 5 0 5 -4 2 -10 -3 -5 -1 -10 4 -10 6 0 10 -3 9 -7 -4 -12 44 -82
84 -125 10 -10 15 -18 12 -18 -4 0 81 -85 136 -134 40 -36 58 -31 121 36 33
34 55 64 49 66 -5 2 -10 12 -10 23 0 10 -6 19 -14 19 -8 0 -17 7 -20 16 -4 9
-9 14 -12 11 -5 -5 -54 39 -54 48 0 3 -8 13 -17 23 -31 32 -63 72 -63 78 0 3
-7 12 -15 21 -8 8 -13 19 -10 24 4 5 1 9 -4 9 -6 0 -11 7 -11 15 0 8 -4 15
-10 15 -5 0 -10 8 -10 18 0 10 -6 26 -14 37 -7 11 -14 22 -14 25 0 3 -5 25
-12 50 -7 25 -14 54 -17 65 -3 11 -6 59 -8 107 -2 78 1 108 20 198 9 47 39
125 54 143 8 9 11 17 7 17 -4 0 0 7 8 16 9 8 14 20 10 25 -3 5 2 12 10 15 9 3
16 10 16 15 0 10 21 37 62 80 15 16 25 29 22 29 -3 0 22 28 56 61 33 34 60 66
60 71 0 5 5 6 10 3 6 -3 10 -3 10 2 0 4 16 26 35 47 19 22 35 44 35 48 0 5 5
6 10 3 6 -3 10 -2 10 2 0 5 26 37 58 70 134 143 180 193 177 193 -2 0 32 36
75 80 43 44 77 80 75 80 -3 0 22 27 54 60 32 33 56 62 53 65 -3 3 2 5 12 5 9
0 14 5 11 10 -3 6 -2 10 2 10 13 0 46 59 47 84 1 12 -4 27 -10 33 -7 7 -14 17
-16 22 -5 16 -70 37 -100 33z"/>
<path d="M2080 2923 c-35 -10 -60 -27 -60 -41 0 -9 -3 -13 -6 -9 -4 3 -26 -15
-49 -41 -24 -26 -64 -69 -89 -97 -25 -27 -46 -53 -46 -58 0 -4 -4 -5 -10 -2
-5 3 -10 3 -10 -2 0 -4 -23 -33 -50 -63 -27 -30 -50 -59 -50 -63 0 -5 -4 -5
-10 -2 -5 3 -10 2 -10 -3 0 -5 -21 -32 -47 -60 -27 -28 -74 -78 -105 -112 -32
-34 -58 -66 -58 -72 0 -6 -3 -8 -7 -5 -7 8 -39 -34 -35 -45 1 -5 -2 -7 -6 -5
-5 1 -24 -14 -41 -33 -107 -114 -131 -141 -175 -193 -27 -31 -45 -57 -42 -57
4 0 1 -7 -6 -15 -30 -33 -38 -45 -32 -45 3 0 -1 -11 -10 -25 -9 -13 -18 -32
-20 -42 -1 -10 -6 -25 -9 -33 -32 -81 -38 -276 -11 -350 3 -8 8 -26 10 -40 3
-13 9 -29 15 -36 5 -6 6 -14 2 -17 -3 -4 -1 -7 5 -7 7 0 11 -3 10 -7 -2 -7 21
-52 57 -113 6 -10 27 -34 48 -55 20 -20 37 -41 37 -47 0 -5 5 -6 10 -3 6 3 10
0 10 -8 0 -13 55 -47 75 -47 12 0 115 111 115 123 -1 18 -26 47 -40 47 -7 0
-11 3 -7 6 3 3 -6 17 -21 31 -15 14 -26 29 -24 34 1 5 -5 9 -14 9 -8 0 -13 4
-10 8 3 5 -4 18 -14 30 -11 12 -20 28 -20 37 0 8 -5 15 -11 15 -5 0 -8 4 -4 9
3 5 1 12 -4 15 -5 3 -12 20 -15 38 -3 18 -9 44 -12 58 -7 31 -7 127 1 158 3
12 7 30 9 40 2 9 9 28 14 42 5 14 9 28 8 31 0 4 8 16 18 28 11 12 16 21 12 21
-4 0 -2 6 4 13 58 69 89 104 108 123 12 13 22 29 22 35 0 7 3 10 6 6 8 -8 44
25 38 35 -3 4 2 8 10 8 9 0 16 6 16 13 0 6 16 27 35 44 19 18 35 37 35 43 0 5
6 10 13 10 6 0 21 13 32 29 10 16 23 27 27 25 4 -3 8 -1 8 5 0 6 14 24 30 41
17 17 30 35 30 40 0 6 3 9 8 8 4 -2 17 7 30 20 12 12 20 22 18 22 -2 0 27 33
65 72 38 40 69 77 69 81 0 5 5 5 10 2 6 -3 10 -1 10 6 0 6 12 24 28 39 61 61
97 104 94 114 -2 6 0 8 4 4 7 -7 31 15 83 77 31 37 36 92 10 124 -10 13 -19
19 -19 15 0 -5 -4 -4 -8 3 -8 12 -59 22 -82 16z"/>
<path d="M2303 2746 c-11 -6 -33 -27 -49 -46 -16 -19 -34 -39 -41 -43 -23 -14
-14 -37 29 -75 64 -58 140 -135 168 -171 14 -18 30 -38 35 -44 18 -21 49 -72
46 -76 -1 -2 3 -7 11 -12 7 -5 13 -12 13 -16 1 -4 10 -26 22 -48 11 -22 28
-62 38 -90 9 -27 20 -57 23 -65 7 -20 6 -15 22 -95 15 -76 19 -254 7 -324 -10
-64 -47 -194 -59 -208 -6 -7 -8 -13 -4 -13 3 0 -7 -24 -23 -54 -17 -30 -27
-57 -24 -60 4 -3 2 -6 -4 -6 -5 0 -18 -17 -29 -37 -10 -21 -25 -45 -32 -53
-38 -45 -52 -64 -52 -72 0 -4 -7 -8 -15 -8 -8 0 -15 -4 -15 -9 0 -5 -20 -31
-45 -57 -25 -27 -45 -53 -45 -57 0 -5 -4 -5 -10 -2 -5 3 -10 2 -10 -4 0 -9
-61 -78 -153 -172 -26 -27 -45 -49 -43 -49 3 0 -5 -10 -17 -23 -12 -13 -28
-33 -36 -45 -8 -11 -19 -18 -24 -15 -6 3 -7 1 -3 -6 4 -6 0 -14 -8 -17 -9 -3
-13 -10 -10 -15 3 -5 1 -9 -4 -9 -5 0 -21 -11 -36 -25 -15 -14 -24 -25 -20
-25 4 0 -7 -14 -24 -30 -18 -17 -37 -30 -44 -30 -6 0 -9 -2 -6 -5 3 -3 -12
-23 -33 -44 -22 -21 -39 -43 -39 -49 0 -7 -4 -11 -8 -10 -4 2 -20 -9 -35 -24
-15 -16 -26 -28 -23 -28 3 0 -22 -27 -56 -60 -33 -33 -57 -60 -53 -60 3 0 0
-9 -8 -21 -19 -26 -11 -78 14 -100 27 -23 81 -32 115 -18 16 7 34 11 39 10 6
-2 7 0 4 3 -4 4 18 32 47 63 30 31 54 60 54 65 0 5 5 6 10 3 6 -3 10 -3 10 2
0 4 25 35 55 68 30 33 55 64 55 68 0 5 5 5 10 2 6 -3 10 -1 10 5 0 6 13 24 29
39 16 16 27 32 24 35 -4 3 0 6 9 6 8 0 21 11 28 25 7 13 17 22 22 19 4 -3 8 0
8 6 0 6 23 33 50 60 28 28 49 50 47 50 -2 0 25 30 60 67 35 37 63 71 63 76 0
4 5 5 10 2 6 -3 10 -1 10 5 0 6 26 38 59 70 32 33 57 60 54 60 -2 0 15 18 37
40 22 22 39 40 36 40 -4 0 42 56 77 92 9 10 17 21 17 26 0 4 7 15 15 25 8 9
11 17 7 17 -4 0 -2 4 3 8 14 10 33 41 46 75 6 15 16 27 22 27 6 0 8 3 4 6 -3
4 3 24 14 45 11 22 16 39 12 39 -5 0 -2 4 5 8 7 5 15 21 18 37 3 16 7 32 10
37 5 8 9 22 20 77 3 14 7 27 9 31 17 27 26 288 13 370 -17 105 -46 219 -59
235 -5 5 -9 19 -9 31 0 12 -5 24 -10 26 -6 2 -12 12 -14 23 -4 21 -45 106 -55
115 -4 3 -7 12 -9 20 -2 8 -10 19 -18 23 -8 4 -14 14 -14 21 0 7 -9 21 -20 31
-11 10 -20 22 -20 27 0 24 -209 231 -266 264 -15 9 -25 9 -41 0z"/>
<path d="M2061 2491 c-23 -24 -41 -48 -41 -53 0 -5 -5 -6 -10 -3 -17 11 -6
-40 12 -59 9 -9 19 -16 21 -16 10 0 84 -78 90 -95 4 -9 11 -13 17 -10 5 3 10
-1 10 -9 0 -9 9 -25 19 -35 11 -11 17 -22 13 -25 -3 -3 -1 -6 5 -6 12 0 73
-120 73 -144 0 -9 4 -16 9 -16 5 0 12 -19 16 -42 5 -24 10 -52 13 -63 2 -11 5
-69 6 -130 2 -80 -2 -125 -15 -167 -9 -31 -14 -59 -11 -62 3 -3 0 -6 -7 -6 -7
0 -10 -4 -6 -9 3 -5 1 -12 -5 -16 -5 -3 -10 -15 -10 -25 0 -10 -5 -20 -10 -22
-6 -2 -12 -13 -13 -26 0 -12 -4 -22 -7 -22 -11 0 -39 -57 -32 -65 4 -5 2 -5
-5 -1 -7 4 -17 -3 -24 -16 -7 -13 -20 -30 -31 -39 -10 -9 -18 -20 -18 -25 0
-5 -18 -24 -40 -43 -22 -19 -36 -39 -33 -44 3 -6 1 -7 -6 -3 -6 4 -14 0 -18
-9 -8 -23 -50 -64 -57 -57 -3 3 -6 -2 -6 -11 0 -10 -5 -17 -10 -17 -6 0 -15
-11 -22 -25 -6 -13 -14 -22 -18 -20 -4 3 -19 -10 -33 -28 -14 -18 -48 -58 -76
-88 -101 -106 -122 -129 -124 -134 -1 -4 -32 -37 -69 -75 -38 -38 -68 -74 -68
-80 0 -6 -4 -9 -8 -6 -4 2 -18 -11 -31 -30 -13 -18 -27 -31 -32 -28 -5 3 -9
-2 -9 -11 0 -8 -7 -18 -15 -21 -8 -4 -12 -10 -9 -15 3 -5 -2 -9 -10 -9 -9 0
-16 -3 -16 -8 0 -4 -18 -27 -40 -51 -44 -48 -56 -77 -46 -117 8 -30 30 -56 40
-47 3 4 6 1 6 -6 0 -7 3 -10 8 -8 4 3 16 1 27 -3 11 -4 34 -2 50 3 30 11 115
90 115 107 0 6 7 10 15 10 8 0 15 4 15 9 0 4 24 33 53 64 123 129 152 162 149
170 -1 5 2 6 8 2 5 -3 15 5 21 19 7 14 16 23 20 20 5 -3 9 -1 9 4 0 5 20 30
44 55 25 25 42 48 39 51 -4 3 1 6 10 6 10 0 17 4 17 8 0 5 33 43 74 86 41 43
74 80 75 82 3 7 116 127 143 152 15 14 25 29 21 35 -3 6 -2 8 3 5 8 -6 30 11
30 22 0 3 11 18 24 33 28 32 67 93 76 120 4 9 9 17 13 17 8 0 36 71 33 83 -1
4 3 7 8 7 5 0 9 3 8 8 -1 6 26 108 39 142 12 33 15 252 3 319 -6 39 -12 73
-12 76 0 2 -9 28 -20 57 -11 29 -20 59 -21 66 0 6 -3 12 -7 12 -4 0 -13 18
-20 40 -7 22 -17 40 -22 40 -4 0 -8 6 -8 13 0 7 -9 23 -20 35 -12 12 -18 22
-15 22 3 0 1 6 -5 13 -41 48 -54 65 -67 84 -8 13 -19 20 -24 17 -5 -3 -9 -2
-8 3 3 18 -1 36 -7 30 -4 -4 -20 8 -35 26 -16 17 -29 29 -29 25 0 -4 -13 5
-28 22 -38 39 -62 35 -111 -19z"/>
<path d="M1910 2322 c0 -5 -11 -15 -25 -22 -14 -7 -23 -15 -21 -18 3 -2 -11
-20 -30 -40 -19 -19 -33 -42 -32 -51 2 -8 24 -34 50 -57 26 -23 45 -44 42 -46
-2 -3 5 -13 16 -23 11 -10 20 -24 20 -32 0 -7 4 -13 9 -13 5 0 11 -8 14 -17 4
-10 13 -36 22 -58 31 -81 36 -188 12 -290 -7 -30 -72 -153 -79 -149 -4 3 -8
-2 -8 -10 0 -8 -8 -20 -17 -25 -10 -6 -15 -11 -12 -11 4 0 -21 -28 -54 -62
-34 -35 -61 -65 -60 -68 0 -3 -3 -4 -8 -3 -5 2 -9 -1 -9 -5 0 -5 -27 -37 -60
-72 -33 -35 -60 -68 -60 -73 0 -4 -4 -5 -10 -2 -5 3 -10 2 -10 -3 0 -5 -26
-36 -57 -70 -32 -33 -87 -92 -123 -132 -36 -40 -75 -82 -87 -93 -12 -11 -20
-25 -16 -30 3 -6 2 -7 -4 -4 -5 3 -25 -12 -43 -34 -18 -23 -53 -61 -77 -85
-25 -24 -42 -44 -40 -44 3 0 -13 -18 -35 -40 -23 -22 -38 -40 -33 -40 4 0 2
-6 -4 -14 -12 -15 -12 -78 0 -70 4 2 10 -4 13 -13 3 -10 17 -23 30 -29 31 -14
96 -10 107 8 5 7 9 9 9 5 0 -12 80 70 80 83 0 6 5 8 10 5 6 -3 10 -2 10 3 0 5
30 41 68 80 60 63 138 148 242 265 19 21 72 77 118 124 45 46 82 87 82 90 0 2
20 25 45 50 25 24 45 49 45 54 0 6 5 7 10 4 6 -3 10 0 10 8 0 8 7 18 16 21 8
3 12 11 9 16 -4 6 -3 9 2 8 16 -6 113 106 113 131 0 8 3 11 7 8 9 -10 70 122
88 194 28 108 21 259 -17 364 -28 79 -81 175 -100 183 -5 2 -8 8 -8 12 0 10
-73 85 -114 118 -30 23 -46 28 -46 14z"/>
</g>
</svg>
